<svg width="505" height="165" viewBox="0 0 505 165" fill="none" xmlns="http://www.w3.org/2000/svg">
<rect width="505" height="165" fill="#020085"/>
<path d="M83.2 53.8H61.6V65H55.2V37L60.8 31.4H55.2V25.8H83.2V31.4H61.6V53L66.4 48.2H83.2V53.8ZM128.819 65H120.659L104.019 48.2H121.619V31.4H100.819V65H94.4188V36.92L100.019 31.4H94.4188V25.8H122.419C123.912 25.8 125.219 26.36 126.339 27.48C127.459 28.6 128.019 29.9067 128.019 31.4V46.6C128.019 50.8667 126.152 53 122.419 53H117.619V53.88L128.819 65ZM173.634 59.4C173.634 60.9467 173.074 62.28 171.954 63.4C170.888 64.4667 169.581 65 168.034 65H145.634C144.088 65 142.754 64.4667 141.634 63.4C140.568 62.28 140.034 60.9467 140.034 59.4V31.4C140.034 29.8533 140.568 28.5467 141.634 27.48C142.754 26.36 144.088 25.8 145.634 25.8H168.034C169.581 25.8 170.888 26.36 171.954 27.48C173.074 28.5467 173.634 29.8533 173.634 31.4V59.4ZM167.234 59.4V31.4H146.434V59.4H167.234ZM221.222 64.92H210.022L194.822 31.72H191.622L194.022 35.72V64.92H187.622V25.72H198.902L214.022 58.92H217.222L214.822 54.92V25.72H221.222V64.92ZM258.391 31.4H246.791V65H240.391V31.4H228.791V25.8H258.391V31.4Z" fill="white"/>
<path d="M294.2 136H266.2V108L271.8 102.4H266.2V96.8H294.2V102.4H272.6V118.4L277.4 113.6H294.2V119.2H272.6V130.4H294.2V136ZM339.8 135.92H328.6L313.4 102.72H310.2L312.6 106.72V135.92H306.2V96.72H317.48L332.6 129.92H335.8L333.4 125.92V96.72H339.8V135.92ZM387.769 130.4C387.769 131.893 387.209 133.2 386.089 134.32C384.969 135.44 383.662 136 382.169 136H354.169V108L359.769 102.4H354.169V96.8H382.169C383.662 96.8 384.969 97.36 386.089 98.48C387.209 99.6 387.769 100.907 387.769 102.4V130.4ZM381.369 130.4V102.4H360.569V135.2L365.369 130.4H381.369Z" fill="white"/>
<ellipse cx="243.5" cy="81.5" rx="45.5" ry="31.5" fill="#020085"/>
<path d="M235.7 92.08L232.27 95.51L214.7 81.44L232.27 66.74L235.7 70.17L221.7 81.44L235.7 92.08ZM260.867 81.44L246.867 70.17L250.297 66.74L267.867 81.44L250.297 95.51L246.867 92.08L260.867 81.44Z" fill="white"/>
</svg>
